<svg preserveAspectRatio="none" overflow="visible" style="display: block;" width="16" height="10" viewBox="0 0 16 10" fill="none" xmlns="http://www.w3.org/2000/svg">
<g id="ios-signal">
<path id="Vector" fill-rule="evenodd" clip-rule="evenodd" d="M15.36 2.76619C15.36 2.44962 14.9779 2.193 14.5066 2.193H13.6534C13.1821 2.193 12.8 2.44962 12.8 2.76619V7.73382C12.8 8.05037 13.1821 8.307 13.6534 8.307H14.5066C14.9779 8.307 15.36 8.05037 15.36 7.73382V2.76619ZM9.41272 3.4158H10.2661C10.7374 3.4158 11.1194 3.67859 11.1194 4.00275V7.72007C11.1194 8.04422 10.7374 8.307 10.2661 8.307H9.41272C8.94144 8.307 8.55936 8.04422 8.55936 7.72007V4.00275C8.55936 3.67859 8.94144 3.4158 9.41272 3.4158ZM5.94729 4.7405H5.09396C4.62267 4.7405 4.24062 5.00661 4.24062 5.33491V7.71257C4.24062 8.04086 4.62267 8.307 5.09396 8.307H5.94729C6.41858 8.307 6.80062 8.04086 6.80062 7.71257V5.33491C6.80062 5.00661 6.41858 4.7405 5.94729 4.7405ZM1.70666 5.96329H0.853336C0.38205 5.96329 0 6.22562 0 6.54922V7.72107C0 8.04467 0.38205 8.307 0.853336 8.307H1.70666C2.17795 8.307 2.56 8.04467 2.56 7.72107V6.54922C2.56 6.22562 2.17795 5.96329 1.70666 5.96329Z" fill="#0F172A"/>
</g>
</svg>
